<?xml version="1.0" standalone="no"?>
<!DOCTYPE svg PUBLIC "-//W3C//DTD SVG 20010904//EN"
 "http://www.w3.org/TR/2001/REC-SVG-20010904/DTD/svg10.dtd">
<svg version="1.0" xmlns="http://www.w3.org/2000/svg"
 width="300.000000pt" height="300.000000pt" viewBox="0 0 300.000000 300.000000"
 preserveAspectRatio="xMidYMid meet">

<g transform="translate(0.000000,300.000000) scale(0.100000,-0.100000)"
fill="#000000" stroke="none">
<path d="M945 2854 c-189 -39 -268 -77 -369 -177 -60 -59 -82 -90 -119 -167
-62 -129 -72 -179 -72 -345 0 -163 13 -238 66 -388 71 -201 189 -401 323 -548
52 -57 46 -44 -15 31 -233 287 -318 654 -209 895 145 321 537 438 1038 312 50
-13 92 -22 92 -21 0 8 -139 79 -212 109 -150 60 -205 70 -388 70 -142 0 -176
-4 -245 -23 -103 -30 -188 -75 -249 -134 -27 -26 -51 -46 -53 -45 -7 8 70 107
119 153 61 58 121 91 224 126 61 20 88 23 234 23 175 0 233 -9 388 -61 120
-41 276 -124 378 -203 11 -9 -10 14 -47 50 -122 119 -316 237 -482 293 -127
43 -319 66 -402 50z"/>
<path d="M252 2341 c-7 -21 -12 -47 -11 -57 0 -11 7 5 15 35 17 62 13 81 -4
22z"/>
<path d="M232 2230 c0 -19 2 -27 5 -17 2 9 2 25 0 35 -3 9 -5 1 -5 -18z"/>
<path d="M242 1955 c0 -16 2 -22 5 -12 2 9 2 23 0 30 -3 6 -5 -1 -5 -18z"/>
<path d="M1972 1910 c0 -14 2 -19 5 -12 2 6 2 18 0 25 -3 6 -5 1 -5 -13z"/>
<path d="M2030 1776 c0 -2 8 -10 18 -17 15 -13 16 -12 3 4 -13 16 -21 21 -21
13z"/>
<path d="M315 1694 c61 -164 197 -402 325 -571 105 -137 284 -325 431 -453
108 -93 329 -253 329 -237 0 3 -17 16 -37 28 -72 44 -230 167 -333 262 -177
160 -183 168 -136 194 17 9 26 5 55 -25 20 -19 35 -41 33 -49 -2 -7 2 -13 8
-13 6 0 8 4 5 10 -3 5 -4 10 0 10 8 0 139 -111 143 -122 2 -4 8 -8 14 -8 6 0
29 -15 52 -33 23 -18 60 -45 83 -61 24 -16 40 -33 36 -39 -3 -6 -1 -7 6 -3 6
4 19 2 27 -5 8 -6 17 -10 19 -7 3 3 -21 22 -52 43 -399 264 -751 659 -928
1040 -26 56 -50 95 -59 95 -8 0 -22 3 -31 6 -13 5 -11 -5 10 -62z m295 -440
c0 -8 -19 -13 -24 -6 -3 5 1 9 9 9 8 0 15 -2 15 -3z m44 -59 c-4 -8 -11 -15
-16 -15 -6 0 -5 6 2 15 7 8 14 15 16 15 2 0 1 -7 -2 -15z m9 -37 c4 -10 8 -10
15 0 8 11 10 11 15 0 3 -10 -3 -14 -24 -14 -15 0 -31 6 -33 13 -7 17 21 17 27
1z m20 -43 c-3 -9 -8 -14 -10 -11 -3 3 -2 9 2 15 9 16 15 13 8 -4z m54 -20
c-10 -7 -13 -16 -7 -25 7 -12 10 -11 16 3 6 17 8 17 25 1 14 -13 16 -20 7 -40
-6 -13 -15 -24 -20 -24 -13 0 -9 17 7 34 10 9 11 17 5 21 -6 3 -13 -1 -16 -9
-8 -21 -16 -20 -42 2 -21 18 -21 18 0 31 12 7 17 18 14 28 -6 14 -4 14 10 2
14 -11 14 -14 1 -24z m108 -97 c50 -48 54 -59 25 -88 -18 -18 -24 -18 -21 3 0
4 -5 7 -13 7 -7 0 -21 11 -30 25 -19 29 -20 39 -4 29 6 -4 8 -3 4 4 -3 5 0 12
6 15 7 2 10 8 6 12 -5 5 -16 0 -27 -9 -12 -11 -21 -13 -25 -7 -4 5 2 14 11 20
10 6 14 11 10 11 -8 0 0 20 9 20 2 0 24 -19 49 -42z"/>
<path d="M827 983 c-4 -3 -7 -11 -7 -16 0 -6 3 -7 7 -4 3 4 17 0 30 -8 29 -19
30 -9 1 16 -24 22 -23 21 -31 12z"/>
<path d="M2228 1715 c-2 -3 -30 -6 -61 -6 -31 -1 -54 -5 -52 -9 9 -15 74 -40
102 -40 30 0 63 26 63 48 0 12 -42 17 -52 7z"/>
<path d="M2510 1378 c48 -101 94 -243 110 -336 7 -42 8 -43 8 -12 1 19 -7 65
-17 103 -10 37 -15 64 -11 60 10 -13 62 -152 81 -218 10 -33 18 -53 18 -44 2
29 -46 173 -91 275 -43 98 -135 274 -143 274 -2 0 18 -46 45 -102z"/>
<path d="M2637 910 c3 -41 7 -77 9 -79 8 -8 2 105 -6 129 -6 15 -7 -4 -3 -50z"/>
<path d="M2701 894 c0 -11 3 -14 6 -6 3 7 2 16 -1 19 -3 4 -6 -2 -5 -13z"/>
<path d="M2712 840 c0 -14 2 -19 5 -12 2 6 2 18 0 25 -3 6 -5 1 -5 -13z"/>
<path d="M2631 784 c0 -11 3 -14 6 -6 3 7 2 16 -1 19 -3 4 -6 -2 -5 -13z"/>
<path d="M2722 770 c0 -14 2 -19 5 -12 2 6 2 18 0 25 -3 6 -5 1 -5 -13z"/>
<path d="M2622 720 c0 -14 2 -19 5 -12 2 6 2 18 0 25 -3 6 -5 1 -5 -13z"/>
<path d="M2589 619 c-15 -38 -23 -67 -19 -64 9 6 54 124 49 129 -2 3 -16 -27
-30 -65z"/>
<path d="M2722 600 c0 -14 2 -19 5 -12 2 6 2 18 0 25 -3 6 -5 1 -5 -13z"/>
<path d="M1404 556 c11 -9 24 -16 30 -16 12 0 7 5 -24 19 -24 11 -24 11 -6 -3z"/>
<path d="M1470 515 c14 -8 30 -14 35 -14 6 0 -1 6 -15 14 -14 8 -29 14 -35 14
-5 0 1 -6 15 -14z"/>
<path d="M2505 483 c-21 -27 -28 -39 -16 -28 23 19 66 75 59 75 -2 0 -21 -21
-43 -47z"/>
<path d="M1540 486 c0 -3 14 -12 30 -21 17 -9 30 -13 30 -11 0 3 -13 12 -30
21 -16 9 -30 13 -30 11z"/>
<path d="M2691 473 c-1 -6 -4 -20 -7 -30 -5 -17 -5 -17 6 0 6 10 9 23 6 30 -3
9 -5 9 -5 0z"/>
<path d="M1415 420 c7 -11 65 -43 65 -36 0 2 -16 13 -36 25 -19 12 -32 16 -29
11z"/>
<path d="M1710 406 c0 -2 7 -7 16 -10 8 -3 12 -2 9 4 -6 10 -25 14 -25 6z"/>
<path d="M1490 375 c0 -2 18 -14 40 -25 22 -11 40 -18 40 -15 0 2 -18 14 -40
25 -22 11 -40 18 -40 15z"/>
<path d="M2624 338 l-19 -23 23 19 c12 11 22 21 22 23 0 8 -8 2 -26 -19z"/>
<path d="M1928 343 c7 -3 16 -2 19 1 4 3 -2 6 -13 5 -11 0 -14 -3 -6 -6z"/>
<path d="M1968 333 c7 -3 16 -2 19 1 4 3 -2 6 -13 5 -11 0 -14 -3 -6 -6z"/>
<path d="M2565 274 c-30 -27 -32 -31 -9 -16 28 19 62 53 53 52 -2 -1 -22 -17
-44 -36z"/>
<path d="M1660 285 c14 -8 30 -14 35 -14 6 0 -1 6 -15 14 -14 8 -29 14 -35 14
-5 0 1 -6 15 -14z"/>
<path d="M2258 153 c7 -3 16 -2 19 1 4 3 -2 6 -13 5 -11 0 -14 -3 -6 -6z"/>
</g>
</svg>
