<svg version="1.0" xmlns="http://www.w3.org/2000/svg"
 width="435.000000pt" height="116.000000pt" viewBox="0 0 435.000000 116.000000"
 preserveAspectRatio="xMidYMid meet">

<g transform="translate(0.000000,116.000000) scale(0.100000,-0.100000)"
fill="#000" stroke="none">
<path d="M3455 966 c-10 -75 2 -136 25 -136 13 0 19 11 24 48 9 73 -3 142 -25
142 -14 0 -19 -11 -24 -54z"/>
<path d="M3325 880 c-6 -10 58 -138 111 -222 44 -69 61 -56 158 124 39 73 44
87 32 97 -12 10 -22 3 -56 -40 -23 -29 -51 -70 -63 -91 -12 -21 -24 -38 -27
-38 -3 0 -23 28 -45 62 -68 106 -95 132 -110 108z"/>
<path d="M3275 750 c-3 -5 10 -37 29 -70 20 -34 36 -64 36 -68 0 -4 -27 -15
-61 -26 -69 -21 -109 -49 -94 -64 12 -12 207 36 226 55 13 13 -12 59 -78 141
-35 43 -47 50 -58 32z"/>
<path d="M3627 718 c-19 -24 -47 -62 -62 -85 -35 -54 -26 -66 56 -82 33 -7 78
-19 101 -27 30 -10 45 -11 52 -4 18 18 -21 40 -151 85 -8 3 0 23 22 61 56 93
44 128 -18 52z"/>
<path d="M1194 682 c-6 -4 -13 -15 -17 -24 -5 -15 -1 -18 21 -17 17 1 20 3 10
6 -21 5 -23 14 -6 31 13 13 9 16 -8 4z"/>
<path d="M756 633 c-2 -10 -8 -48 -12 -85 -7 -72 -21 -94 -54 -83 -16 5 -20
14 -18 33 4 37 -14 43 -26 9 -14 -40 2 -61 51 -65 27 -2 44 2 53 13 20 24 40
195 24 195 -7 0 -15 -8 -18 -17z"/>
<path d="M816 610 c-3 -22 -9 -58 -12 -79 -4 -32 -2 -40 13 -44 34 -9 293 -7
293 2 0 6 -12 11 -27 13 -20 2 -28 9 -28 22 0 18 10 27 50 42 17 7 14 9 -13
12 -41 4 -72 -20 -72 -55 0 -18 -5 -24 -17 -21 -11 2 -17 12 -16 23 7 76 -88
73 -112 -3 -4 -14 -13 -22 -23 -20 -18 4 -19 15 -8 96 5 42 4 52 -8 52 -9 0
-16 -14 -20 -40z m137 -64 c9 -23 -17 -50 -36 -40 -15 9 -15 12 -1 32 17 25
30 28 37 8z"/>
<path d="M1236 588 c-9 -75 -18 -88 -62 -88 -18 0 -36 -4 -39 -10 -9 -14 182
-11 194 4 5 6 13 44 17 85 6 61 4 73 -7 69 -9 -3 -18 -31 -24 -74 -9 -59 -13
-69 -30 -69 -18 0 -20 6 -17 73 2 56 -1 72 -12 72 -9 0 -16 -20 -20 -62z"/>
<path d="M2239 643 c-16 -108 -25 -138 -44 -138 -16 0 -21 8 -23 38 -2 23 -8
37 -17 37 -9 0 -15 -14 -17 -37 -2 -26 -8 -38 -18 -38 -10 0 -14 9 -13 28 2
36 -20 35 -34 -3 -6 -16 -16 -30 -22 -30 -6 0 -11 14 -11 30 0 39 -27 41 -32
3 -2 -22 -9 -29 -30 -31 -31 -4 -34 4 -13 32 11 14 12 23 4 33 -16 18 -74 16
-94 -3 -14 -15 -14 -18 0 -33 21 -24 19 -31 -10 -31 -21 0 -25 5 -25 29 0 36
-20 53 -57 49 -35 -4 -63 -49 -47 -75 6 -10 23 -19 38 -21 32 -4 25 -22 -10
-22 -13 0 -24 -4 -24 -10 0 -20 68 -11 83 11 14 19 25 20 211 21 130 1 199 5
205 12 5 6 13 44 18 84 8 58 7 72 -4 72 -7 0 -13 -3 -14 -7z m-434 -114 c0
-15 -7 -25 -18 -27 -22 -4 -33 24 -17 43 18 21 35 13 35 -16z m135 17 c0 -21
-21 -31 -31 -15 -14 22 -11 29 11 29 11 0 20 -6 20 -14z"/>
<path d="M2296 613 c-18 -124 -19 -133 -3 -133 11 0 17 16 21 58 4 31 9 69 12
85 4 20 2 27 -9 27 -10 0 -17 -13 -21 -37z"/>
<path d="M2528 614 c-45 -41 -48 -54 -10 -54 37 0 54 -17 41 -42 -7 -14 -21
-18 -60 -18 l-51 0 4 40 c2 27 0 40 -9 40 -13 0 -16 -11 -28 -82 -4 -24 -11
-38 -20 -38 -8 0 -15 -4 -15 -10 0 -5 12 -10 26 -10 17 0 28 6 31 20 5 18 14
20 74 20 64 0 69 2 75 24 11 46 1 70 -31 76 l-29 5 29 23 c17 14 25 26 19 32
-5 5 -24 -5 -46 -26z"/>
<path d="M2876 638 c-2 -7 -8 -40 -12 -73 -8 -50 -12 -60 -29 -60 -15 0 -21 8
-25 35 -4 30 -9 36 -33 38 -33 4 -62 -18 -71 -54 -4 -16 -14 -24 -27 -24 -19
0 -20 4 -14 40 5 32 4 40 -8 40 -14 0 -27 -40 -27 -85 0 -12 -10 -30 -22 -38
l-23 -16 26 0 c16 -1 32 7 41 21 13 19 22 21 116 20 65 0 104 4 111 11 15 19
26 157 12 157 -6 0 -13 -6 -15 -12z m-93 -92 c8 -21 -16 -48 -35 -41 -17 7
-14 34 6 47 16 11 23 10 29 -6z"/>
<path d="M2936 618 c-18 -103 -19 -138 -3 -138 11 0 16 16 21 58 4 31 9 69 12
85 4 19 2 27 -9 27 -9 0 -17 -13 -21 -32z"/>
<path d="M2437 633 c-12 -11 -8 -23 8 -23 8 0 15 7 15 15 0 16 -12 20 -23 8z"/>
<path d="M1170 586 c0 -19 -3 -41 -6 -50 -4 -10 -1 -16 9 -16 16 0 27 29 27
73 0 17 -5 27 -15 27 -10 0 -15 -10 -15 -34z"/>
<path d="M1528 589 c-25 -14 -22 -54 4 -71 28 -19 16 -38 -26 -38 -42 0 -62
21 -47 48 8 15 7 21 -3 25 -12 5 -36 -30 -36 -53 0 -40 121 -58 153 -22 22 24
22 27 -9 56 -28 25 -25 46 7 46 10 0 19 5 19 10 0 13 -40 12 -62 -1z"/>
<path d="M1630 570 c0 -5 6 -10 13 -10 7 0 18 -5 25 -12 19 -19 -4 -48 -38
-48 -17 0 -30 -5 -30 -11 0 -6 19 -9 47 -7 42 3 47 6 54 32 11 40 -5 66 -41
66 -17 0 -30 -4 -30 -10z"/>
<path d="M3260 484 c-120 -41 -174 -78 -142 -98 5 -3 51 8 102 25 52 16 95 29
97 29 2 0 -21 -47 -52 -103 -58 -110 -66 -137 -37 -137 23 0 176 242 177 279
0 23 -5 26 -35 28 -19 2 -69 -9 -110 -23z"/>
<path d="M3553 493 c-12 -30 149 -293 180 -293 9 0 17 4 17 9 0 16 -28 75 -70
149 -23 41 -39 76 -37 78 2 3 46 -9 97 -25 52 -17 97 -28 102 -25 22 14 1 34
-69 66 -122 56 -208 72 -220 41z"/>
<path d="M3436 418 c-35 -59 -86 -174 -86 -193 0 -38 33 -8 77 70 26 47 50 85
53 85 3 0 27 -38 53 -85 45 -80 77 -108 77 -67 0 9 -24 64 -53 122 -62 126
-81 136 -121 68z"/>
<path d="M1457 424 c-8 -8 1 -24 14 -24 5 0 9 7 9 15 0 15 -12 20 -23 9z"/>
<path d="M1500 414 c0 -17 22 -14 28 4 2 7 -3 12 -12 12 -9 0 -16 -7 -16 -16z"/>
<path d="M960 340 c0 -28 -2 -29 -30 -23 -43 8 -70 -19 -70 -68 0 -43 27 -67
57 -51 9 5 24 7 33 5 20 -5 24 9 36 110 5 48 4 57 -10 57 -11 0 -16 -9 -16
-30z m-16 -63 c14 -22 -3 -51 -33 -55 -17 -3 -21 2 -21 25 0 49 31 66 54 30z"/>
<path d="M1026 355 c-4 -10 1 -15 14 -15 11 0 20 7 20 15 0 8 -6 15 -14 15 -8
0 -16 -7 -20 -15z"/>
<path d="M1570 355 c0 -8 7 -15 15 -15 8 0 15 7 15 15 0 8 -7 15 -15 15 -8 0
-15 -7 -15 -15z"/>
<path d="M462 348 c-22 -22 -14 -58 18 -76 39 -22 35 -47 -8 -47 -39 0 -50
-21 -15 -30 50 -12 103 29 87 68 -2 7 -18 20 -35 30 -37 21 -33 41 9 45 18 2
32 7 32 13 0 13 -74 11 -88 -3z"/>
<path d="M1157 353 c-3 -5 -9 -41 -12 -81 l-8 -72 50 0 c27 0 54 5 61 12 15
15 16 55 1 63 -6 5 -4 11 6 19 10 7 15 22 13 37 -3 21 -8 24 -55 27 -28 2 -53
-1 -56 -5z m72 -22 c12 -8 12 -12 2 -25 -19 -22 -51 -21 -51 2 0 32 21 41 49
23z m-4 -86 c0 -14 -8 -21 -27 -23 -22 -3 -28 1 -28 16 0 25 10 33 35 30 12
-2 20 -10 20 -23z"/>
<path d="M2226 329 c-44 -52 -31 -112 28 -133 22 -8 56 1 56 15 0 5 -11 9 -24
9 -29 0 -56 24 -56 49 0 32 39 71 71 71 16 0 29 5 29 10 0 6 -18 10 -39 10
-32 0 -44 -6 -65 -31z"/>
<path d="M2636 328 c-13 -15 -15 -22 -6 -28 8 -5 9 -22 5 -54 l-7 -46 31 0
c17 0 31 5 31 10 0 6 -7 10 -15 10 -19 0 -9 59 14 79 12 10 13 15 4 18 -7 3
-13 11 -13 19 0 20 -22 16 -44 -8z"/>
<path d="M3122 302 c-63 -61 -77 -86 -57 -102 12 -10 26 0 80 52 36 35 65 72
65 81 0 31 -38 18 -88 -31z"/>
<path d="M3750 333 c0 -21 112 -133 133 -133 38 0 0 66 -68 120 -42 34 -65 38
-65 13z"/>
<path d="M590 307 c0 -7 11 -13 27 -12 14 0 28 -6 30 -12 3 -9 -5 -13 -24 -13
-35 0 -53 -16 -53 -46 0 -27 20 -35 63 -27 40 8 47 17 47 69 0 45 -10 54 -61
54 -17 0 -29 -5 -29 -13z m60 -61 c0 -11 -33 -36 -41 -31 -19 12 -9 35 16 35
14 0 25 -2 25 -4z"/>
<path d="M715 268 c-6 -44 -5 -54 11 -65 10 -7 25 -10 34 -7 8 4 25 6 36 6 16
-1 23 6 28 29 11 55 7 89 -9 89 -10 0 -15 -10 -15 -33 0 -42 -21 -73 -44 -64
-14 6 -16 15 -10 52 5 37 3 45 -9 45 -11 0 -17 -15 -22 -52z"/>
<path d="M1016 283 c-9 -59 -7 -83 8 -83 12 0 26 58 26 106 0 32 -28 12 -34
-23z"/>
<path d="M1296 268 c-6 -44 -4 -54 11 -65 9 -8 24 -10 33 -7 8 4 25 6 37 6 18
-1 23 5 28 36 13 83 13 83 -4 80 -11 -2 -17 -16 -19 -40 -3 -39 -23 -63 -46
-55 -10 4 -12 18 -9 51 5 37 3 46 -9 46 -11 0 -17 -16 -22 -52z"/>
<path d="M1458 309 c-27 -15 -22 -38 12 -57 39 -22 38 -32 -5 -32 -41 0 -46
-15 -9 -24 32 -8 77 18 72 42 -2 9 -14 22 -26 28 -29 14 -29 29 0 29 12 0 23
6 26 13 5 15 -45 16 -70 1z"/>
<path d="M1566 298 c-14 -71 -14 -98 0 -98 17 0 20 8 28 73 4 37 3 47 -9 47
-8 0 -17 -10 -19 -22z"/>
<path d="M1630 296 c0 -11 -3 -38 -6 -58 -5 -30 -3 -38 9 -38 10 0 18 13 22
39 13 77 61 81 52 5 -3 -33 -1 -44 9 -44 17 0 27 36 22 81 -3 34 -3 34 -55 35
-48 1 -53 -1 -53 -20z"/>
<path d="M1790 300 c-45 -45 -6 -121 55 -106 35 9 31 24 -7 28 -48 5 -48 28 1
28 47 0 55 9 41 44 -12 33 -60 36 -90 6z m68 -17 c2 -9 -7 -13 -28 -13 -28 0
-31 2 -20 15 15 18 41 16 48 -2z"/>
<path d="M1922 308 c-20 -20 -14 -48 12 -58 40 -15 41 -30 2 -30 -41 0 -48
-17 -11 -26 29 -7 75 18 75 41 0 8 -14 22 -30 30 -33 17 -31 38 2 33 12 -2 23
3 25 10 6 16 -59 16 -75 0z"/>
<path d="M2036 304 c-23 -22 -20 -33 14 -52 38 -22 38 -32 1 -32 -17 0 -32 -4
-35 -9 -9 -14 40 -22 69 -11 35 13 31 50 -8 68 -32 16 -26 36 9 28 17 -5 24
-2 24 9 0 20 -54 20 -74 -1z"/>
<path d="M2360 300 c-46 -46 -6 -121 56 -106 30 8 22 23 -15 28 -43 6 -37 28
8 28 40 0 46 6 41 40 -5 35 -59 41 -90 10z m68 -17 c2 -9 -7 -13 -28 -13 -28
0 -31 2 -20 15 15 18 41 16 48 -2z"/>
<path d="M2486 287 c-11 -53 -7 -87 9 -87 10 0 15 10 15 34 0 36 24 70 44 63
7 -3 10 -22 8 -51 -2 -35 0 -46 12 -46 20 0 33 84 17 104 -7 8 -30 14 -56 14
-40 -1 -44 -3 -49 -31z"/>
<path d="M2730 300 c-45 -45 -6 -121 55 -106 35 9 31 24 -7 28 -49 5 -48 28 1
28 46 0 59 16 41 49 -14 27 -63 28 -90 1z m68 -17 c2 -9 -7 -13 -28 -13 -28 0
-31 2 -20 15 15 18 41 16 48 -2z"/>
<path d="M2856 282 c-10 -60 -7 -82 9 -82 10 0 15 10 15 30 0 20 9 40 25 56
14 14 25 27 25 28 0 2 -15 4 -34 4 -31 0 -34 -3 -40 -36z"/>
</g>
</svg>
