
<svg version="1.0" xmlns="http://www.w3.org/2000/svg"
 width="2560.000000pt" height="887.000000pt" viewBox="0 0 2560.000000 887.000000"
 preserveAspectRatio="xMidYMid meet">

<g transform="translate(0.000000,887.000000) scale(0.100000,-0.100000)"
fill="#fff" stroke="none">
<path d="M3453 8645 c-211 -121 -383 -222 -383 -225 0 -3 172 -105 383 -226
l382 -221 3 223 c1 123 1 324 0 447 l-3 222 -382 -220z"/>
<path d="M4360 8420 l0 -452 38 22 c20 12 193 112 385 223 191 110 347 203
347 206 0 4 -154 95 -342 204 -189 108 -362 209 -385 223 l-43 25 0 -451z"/>
<path d="M10930 8859 c-564 -64 -974 -367 -1091 -806 -30 -110 -37 -326 -15
-452 57 -326 258 -536 635 -661 147 -49 305 -81 596 -120 350 -46 479 -84 557
-162 44 -44 62 -102 55 -174 -7 -68 -35 -120 -92 -173 -88 -81 -203 -116 -375
-115 -197 2 -341 55 -456 169 -63 63 -107 141 -119 210 -3 22 -8 50 -11 63
l-4 22 -410 0 -410 0 0 -39 c0 -70 21 -193 47 -276 108 -341 381 -604 772
-739 419 -146 974 -115 1356 76 421 210 646 577 621 1013 -14 248 -88 419
-245 567 -198 186 -482 282 -1011 343 -345 40 -469 75 -547 157 -40 42 -53 76
-53 140 0 179 204 298 485 285 172 -9 296 -57 391 -151 62 -62 88 -110 105
-194 7 -34 16 -61 19 -60 47 21 684 397 687 406 12 28 -92 176 -197 282 -185
187 -394 297 -681 359 -185 39 -422 51 -609 30z"/>
<path d="M13090 7190 l0 -1570 648 0 c356 0 719 5 807 11 390 26 718 128 988
309 437 292 667 764 644 1324 -33 830 -632 1401 -1562 1486 -62 6 -421 10
-817 10 l-708 0 0 -1570z m1535 832 c252 -71 415 -203 516 -418 102 -216 116
-499 35 -736 -41 -121 -82 -191 -168 -283 -79 -85 -168 -145 -272 -186 -134
-52 -191 -60 -468 -66 l-258 -6 0 863 0 862 273 -5 c232 -4 282 -8 342 -25z"/>
<path d="M17237 8753 c-6 -10 -963 -3066 -972 -3105 l-7 -28 495 0 495 0 11
33 c5 17 40 136 76 262 36 127 73 251 81 277 l15 46 431 249 431 248 -365 5
-366 5 181 598 c100 328 183 597 187 597 12 0 384 -1243 515 -1720 75 -272
143 -519 151 -547 l15 -53 496 0 495 0 -7 28 c-3 15 -223 720 -488 1567 l-483
1540 -691 3 c-381 1 -694 -1 -696 -5z"/>
<path d="M20425 8486 l-470 -272 -3 -1297 -2 -1297 475 0 475 0 0 1570 c0 864
-1 1570 -2 1569 -2 0 -214 -123 -473 -273z"/>
<path d="M22222 8728 c-11 -39 -963 -3077 -969 -3095 -4 -10 98 -13 491 -13
462 0 496 1 504 18 5 9 46 148 92 308 l84 290 432 250 433 249 -365 3 c-200 1
-364 5 -364 8 0 10 361 1198 366 1203 2 2 4 2 4 -1 0 -3 81 -270 180 -594 100
-324 251 -843 336 -1154 86 -311 158 -568 161 -572 2 -5 227 -8 499 -8 467 0
495 1 490 18 -3 9 -222 708 -486 1552 -264 844 -483 1543 -486 1553 -5 16 -47
17 -699 17 l-694 0 -9 -32z"/>
<path d="M5830 8247 l0 -446 173 100 c94 55 268 155 384 222 117 67 213 124
213 127 -1 5 -740 432 -759 438 -8 3 -11 -133 -11 -441z"/>
<path d="M1865 7960 c-209 -121 -381 -223 -382 -227 -3 -9 756 -447 763 -441
2 3 3 203 2 446 l-3 441 -380 -219z"/>
<path d="M4769 7902 c-195 -114 -366 -214 -378 -222 -22 -15 -10 -22 315 -210
186 -107 360 -207 386 -223 l48 -27 0 445 c0 245 -3 445 -7 444 -5 0 -168 -94
-364 -207z"/>
<path d="M3060 7416 c0 -245 2 -446 4 -446 7 0 749 429 758 438 5 5 -144 97
-339 209 -191 110 -365 211 -385 223 l-38 22 0 -446z"/>
<path d="M7110 6936 l0 -447 28 15 c48 25 727 417 734 425 4 4 -155 101 -355
216 -199 115 -372 215 -384 223 l-23 14 0 -446z"/>
<path d="M3450 7075 c-278 -162 -504 -297 -503 -301 1 -5 861 -506 1006 -585
16 -9 17 22 17 586 0 327 -3 595 -7 594 -5 -1 -235 -133 -513 -294z"/>
<path d="M4232 6787 c2 -322 6 -588 10 -592 3 -3 219 116 480 266 260 150 490
282 510 294 l36 21 -510 294 c-281 162 -515 297 -520 298 -5 2 -7 -239 -6
-581z"/>
<path d="M1760 6746 l0 -445 323 186 c177 102 350 201 384 221 35 20 59 39 55
43 -4 3 -162 95 -352 204 -189 109 -359 207 -377 218 l-33 19 0 -446z"/>
<path d="M6053 6967 c-237 -137 -378 -224 -370 -229 6 -4 179 -103 382 -220
l370 -213 3 223 c1 123 1 322 0 442 l-3 218 -382 -221z"/>
<path d="M468 6742 c-208 -119 -377 -219 -377 -222 -1 -5 739 -431 759 -438 6
-2 10 154 10 437 0 243 -3 441 -7 441 -5 0 -178 -98 -385 -218z"/>
<path d="M2930 6266 l0 -356 416 0 416 0 99 56 c55 31 98 58 97 59 -2 1 -219
127 -483 280 -264 153 -495 286 -512 297 l-33 20 0 -356z"/>
<path d="M4775 6333 c-269 -156 -500 -290 -513 -297 -21 -11 -13 -18 146 -109
l168 -96 344 -29 c190 -16 346 -29 348 -27 1 1 1 191 0 422 l-3 420 -490 -284z"/>
<path d="M2315 6247 c-181 -106 -350 -205 -374 -219 l-44 -26 44 -6 c63 -8
648 -56 687 -56 l32 0 0 250 c0 138 -3 250 -7 250 -5 -1 -156 -88 -338 -193z"/>
<path d="M5542 6108 l3 -333 385 -32 385 -32 118 66 c64 36 119 69 122 73 4 7
-993 590 -1009 590 -3 0 -5 -150 -4 -332z"/>
<path d="M40 5851 l0 -440 107 62 c60 35 149 87 199 117 l92 53 -33 76 c-152
354 -210 478 -227 492 -11 8 -46 30 -79 48 l-59 32 0 -440z"/>
<path d="M1125 5516 c-49 -29 -220 -128 -378 -218 l-288 -166 363 -208 c200
-114 373 -214 386 -222 l22 -14 0 441 c0 242 -3 441 -7 440 -5 0 -48 -24 -98
-53z"/>
<path d="M7627 5085 c-15 -30 -24 -55 -21 -55 10 0 124 65 124 70 0 7 -55 40
-67 40 -5 0 -21 -25 -36 -55z"/>
<path d="M7990 4700 l-235 -137 -53 -129 c-29 -70 -51 -133 -48 -139 5 -13
565 -339 572 -333 2 3 3 201 2 440 l-3 436 -235 -138z"/>
<path d="M21451 4803 c-38 -19 -68 -62 -77 -110 -6 -29 -1 -50 21 -105 6 -15
1 -18 -29 -18 -34 0 -36 -1 -36 -35 l0 -35 155 0 155 0 0 35 0 35 -60 0 c-97
0 -134 29 -132 104 1 48 34 71 97 70 l55 -2 0 33 c0 21 -6 35 -16 39 -30 11
-99 6 -133 -11z"/>
<path d="M1630 4661 l0 -153 48 28 c26 15 49 28 51 30 3 3 -87 235 -95 243 -2
2 -4 -64 -4 -148z"/>
<path d="M11134 4787 c-2 -7 -4 -204 -2 -438 4 -591 -35 -543 441 -547 l327
-3 0 270 0 271 -55 0 -55 0 0 -210 0 -210 -248 0 c-199 0 -252 3 -268 14 -18
14 -19 33 -24 438 l-5 423 -53 3 c-37 2 -54 -1 -58 -11z"/>
<path d="M12100 4368 c0 -399 2 -436 19 -473 40 -86 71 -95 358 -95 253 0 313
9 356 51 l29 29 21 -26 c32 -41 76 -54 181 -54 126 0 189 14 226 51 l29 30 16
-25 c31 -48 76 -59 209 -54 130 5 182 20 209 58 l15 22 35 -39 35 -38 196 -3
196 -3 0 500 0 501 -55 0 -55 0 0 -440 0 -440 -134 0 c-126 0 -134 1 -159 24
-14 13 -30 41 -36 62 -7 25 -11 178 -11 417 l0 377 -55 0 -54 0 -3 -419 c-3
-396 -4 -420 -22 -440 -17 -19 -30 -21 -131 -21 -174 0 -185 16 -185 268 l0
152 -54 0 -54 0 -4 -191 c-4 -237 2 -229 -153 -229 -179 0 -186 9 -193 252
l-5 168 -53 0 -54 0 0 -185 c0 -184 0 -186 -25 -210 l-24 -25 -224 0 c-206 0
-227 2 -248 19 l-24 19 -3 421 -3 421 -54 0 -55 0 0 -432z"/>
<path d="M19760 4300 l0 -500 55 0 55 0 0 500 0 500 -55 0 -55 0 0 -500z"/>
<path d="M23070 4360 l0 -440 -206 0 -206 0 35 48 c46 63 61 112 54 183 -13
142 -129 227 -269 198 -129 -28 -208 -167 -208 -365 l0 -64 -99 0 c-158 0
-170 20 -171 273 l0 147 -54 0 -55 0 -3 -191 c-4 -238 2 -229 -154 -229 -178
0 -184 9 -184 250 l0 170 -60 0 -60 0 0 -189 0 -190 -26 -20 c-25 -20 -39 -21
-251 -21 -127 0 -232 4 -243 10 -33 18 -40 66 -40 281 l0 209 -145 0 c-175 0
-230 -16 -293 -84 -49 -53 -67 -102 -66 -186 1 -114 64 -194 175 -220 49 -12
147 -9 196 5 18 6 24 0 41 -38 15 -34 31 -52 64 -69 42 -22 50 -23 308 -23
290 0 321 5 363 55 l24 28 14 -25 c22 -41 82 -63 173 -63 127 0 202 17 239 54
l32 32 20 -31 c27 -39 72 -54 172 -54 l82 -1 6 -57 c11 -99 26 -151 56 -193
91 -125 316 -118 390 14 32 56 33 146 2 199 l-22 37 239 0 240 0 0 500 0 500
-55 0 -55 0 0 -440z m-2310 -174 c0 -141 5 -132 -92 -146 -99 -14 -165 16
-189 87 -15 47 -4 97 31 132 36 35 82 49 178 50 l72 1 0 -124z m1842 25 c31
-28 33 -33 33 -98 -1 -80 -18 -119 -71 -160 -30 -22 -49 -28 -105 -31 l-69 -4
0 85 c0 155 49 237 142 237 28 0 47 -8 70 -29z m-32 -426 c75 -39 95 -131 41
-186 -25 -25 -37 -29 -84 -29 -94 0 -137 55 -137 178 l0 52 75 0 c48 0 87 -6
105 -15z"/>
<path d="M23380 4300 l0 -500 55 0 55 0 0 500 0 500 -55 0 -55 0 0 -500z"/>
<path d="M19450 4355 l0 -435 -130 0 c-75 0 -139 5 -154 11 -47 22 -56 61 -56
243 l0 166 -55 0 -55 0 0 -157 c0 -171 -9 -230 -36 -250 -24 -17 -118 -16
-153 1 -43 23 -51 54 -51 201 l0 135 -60 0 -60 0 0 -155 c0 -190 -3 -195 -106
-195 -76 0 -126 20 -143 56 -6 15 -11 80 -11 159 l0 135 -60 0 -60 0 0 -154 0
-155 -26 -20 c-25 -20 -39 -21 -236 -21 l-210 0 49 44 c94 84 132 196 95 278
-24 56 -62 83 -142 104 -81 21 -156 12 -237 -27 -71 -34 -117 -82 -134 -138
l-12 -39 82 -92 c44 -51 81 -96 81 -100 0 -16 -104 -30 -225 -30 -123 0 -125
0 -125 23 0 12 -5 64 -10 116 -21 196 -98 281 -255 281 -85 0 -137 -22 -194
-80 -59 -61 -84 -134 -79 -237 3 -71 7 -87 33 -124 18 -26 50 -53 79 -68 43
-22 65 -26 178 -29 127 -4 130 -5 124 -26 -3 -11 -6 -26 -6 -33 0 -7 -14 -28
-31 -48 -36 -40 -105 -65 -183 -65 -28 0 -68 -3 -88 -6 l-38 -7 0 -55 0 -55
108 6 c120 6 199 28 256 72 40 31 85 114 93 173 l5 39 152 6 c118 4 167 10
224 28 l73 22 42 -24 c40 -23 51 -24 260 -27 256 -4 316 5 362 52 l30 31 31
-32 c40 -41 100 -57 191 -50 81 6 134 27 152 61 l13 22 32 -32 c73 -73 234
-69 305 7 l19 21 17 -25 c32 -50 67 -57 264 -57 l181 0 0 495 0 495 -55 0 -55
0 0 -435z m-1688 -115 c108 -30 85 -153 -45 -235 l-28 -18 -75 74 c-100 99
-104 107 -68 136 55 44 145 62 216 43z m-741 -27 c48 -29 78 -116 79 -230 l0
-63 -106 0 c-120 0 -166 15 -189 61 -36 68 -5 191 57 229 41 25 119 27 159 3z"/>
<path d="M0 4315 c0 -245 3 -445 7 -445 10 0 762 434 762 440 1 3 -90 57 -202
121 -111 64 -284 164 -384 223 l-183 105 0 -444z"/>
<path d="M14880 4640 c0 -38 2 -70 5 -70 3 0 30 14 60 31 52 29 55 33 55 70
l0 39 -60 0 -60 0 0 -70z"/>
<path d="M15060 4640 c0 -38 3 -70 6 -70 4 0 31 14 60 31 51 29 54 33 54 70
l0 39 -60 0 -60 0 0 -70z"/>
<path d="M20520 4640 c0 -38 2 -70 5 -70 3 0 30 14 60 31 52 29 55 33 55 70
l0 39 -60 0 -60 0 0 -70z"/>
<path d="M20700 4640 c0 -38 2 -70 5 -70 3 0 30 14 60 31 52 29 55 33 55 70
l0 39 -60 0 -60 0 0 -70z"/>
<path d="M11780 4570 c0 -80 -5 -78 83 -23 31 20 37 29 37 58 l0 35 -60 0 -60
0 0 -70z"/>
<path d="M10230 4489 c0 -39 3 -69 8 -67 4 2 31 17 60 33 48 28 52 33 52 68
l0 37 -60 0 -60 0 0 -71z"/>
<path d="M10410 4489 c0 -39 3 -69 8 -67 4 2 31 16 60 32 49 27 52 32 52 68
l0 38 -60 0 -60 0 0 -71z"/>
<path d="M14892 4401 c-61 -21 -114 -67 -145 -126 -28 -54 -30 -174 -3 -225
49 -93 107 -124 231 -125 50 0 103 2 120 5 23 4 30 1 33 -15 7 -32 41 -74 75
-93 28 -15 72 -17 365 -20 l332 -3 0 270 0 271 -55 0 -55 0 0 -210 0 -210
-251 0 c-144 0 -258 4 -269 10 -33 18 -40 66 -40 281 l0 209 -142 0 c-112 -1
-155 -5 -196 -19z m228 -215 c0 -141 5 -132 -92 -146 -99 -14 -165 16 -189 87
-15 47 -4 97 31 132 36 35 82 49 178 50 l72 1 0 -124z"/>
<path d="M16290 4340 c-25 -17 -49 -31 -54 -33 -5 -2 29 -59 76 -128 116 -167
134 -203 120 -235 l-12 -24 -190 0 -190 0 0 -60 0 -60 193 0 c168 0 197 3 234
20 80 36 107 133 62 223 -22 43 -177 306 -188 319 -4 4 -27 -6 -51 -22z"/>
<path d="M10820 4130 l0 -210 -400 0 c-431 0 -454 3 -481 52 -7 13 -15 72 -17
136 l-5 112 -54 0 -55 0 4 -147 c4 -177 14 -203 93 -243 l50 -25 493 -3 492
-3 -2 268 -3 268 -57 3 -58 3 0 -211z"/>
<path d="M1630 3601 c0 -325 3 -591 6 -591 4 0 167 93 364 207 l357 207 -85
206 c-46 113 -88 215 -92 226 -6 14 -102 76 -272 174 -145 84 -266 155 -270
157 -5 2 -8 -262 -8 -586z"/>
<path d="M850 3824 c-206 -119 -378 -219 -382 -222 -3 -4 165 -105 374 -225
209 -120 382 -217 384 -214 2 2 3 200 2 440 l-3 436 -375 -215z"/>
<path d="M7205 3573 c-59 -148 -116 -290 -126 -316 l-19 -49 68 39 c292 162
609 349 604 355 -8 7 -411 238 -416 238 -2 0 -52 -120 -111 -267z"/>
<path d="M12660 3590 c0 -80 -5 -78 83 -23 31 20 37 29 37 58 l0 35 -60 0 -60
0 0 -70z"/>
<path d="M12840 3590 l0 -71 60 33 c57 31 60 35 60 71 l0 37 -60 0 -60 0 0
-70z"/>
<path d="M13190 3589 l0 -71 23 14 c12 8 39 24 60 37 31 19 37 28 37 57 l0 34
-60 0 -60 0 0 -71z"/>
<path d="M15640 3590 c0 -80 -5 -78 83 -23 31 20 37 29 37 58 l0 35 -60 0 -60
0 0 -70z"/>
<path d="M15820 3590 l0 -71 60 33 c57 31 60 35 60 71 l0 37 -60 0 -60 0 0
-70z"/>
<path d="M21790 3589 l0 -70 60 33 c57 31 60 35 60 70 l0 38 -60 0 -60 0 0
-71z"/>
<path d="M21970 3589 c0 -39 3 -69 8 -67 4 2 31 16 60 32 49 27 52 32 52 68
l0 38 -60 0 -60 0 0 -71z"/>
<path d="M7703 3071 c-204 -119 -374 -219 -377 -222 -4 -4 406 -247 706 -417
l58 -33 0 445 c0 245 -3 446 -7 445 -5 -1 -175 -99 -380 -218z"/>
<path d="M80 2795 c0 -245 3 -445 6 -445 8 0 737 421 751 434 12 10 -81 67
-709 429 l-48 27 0 -445z"/>
<path d="M11592 2678 l3 -433 23 -41 c45 -78 50 -79 367 -79 303 0 321 3 359
57 16 22 16 22 31 3 8 -11 15 -23 15 -26 0 -4 15 -14 34 -23 30 -14 104 -16
655 -16 413 0 637 4 671 11 31 6 65 23 84 40 l33 28 21 -29 c13 -17 38 -33 59
-39 24 -7 191 -11 436 -11 l399 0 -4 168 c-3 166 -3 168 -36 234 -25 51 -43
74 -78 97 -68 45 -106 54 -204 49 -77 -4 -98 -9 -164 -41 -41 -21 -100 -61
-131 -89 -63 -58 -146 -177 -172 -250 -16 -45 -20 -49 -47 -46 -18 2 -37 14
-50 31 -19 25 -21 45 -24 173 l-4 144 -54 0 -54 0 0 -139 c0 -147 -7 -183 -38
-200 -10 -6 -78 -13 -149 -17 l-131 -7 -3 114 c-4 105 -7 120 -37 181 -52 106
-122 148 -248 148 -140 0 -246 -53 -339 -169 l-50 -62 -3 335 -2 336 -55 0
-55 0 0 -441 0 -442 -97 5 c-173 9 -177 14 -181 251 l-4 177 -53 0 -53 0 -4
-191 c-3 -187 -4 -191 -27 -210 -21 -17 -42 -19 -250 -19 -180 0 -231 3 -247
14 -18 14 -19 32 -22 435 l-3 421 -60 0 -60 0 3 -432z m1593 -129 c98 -27 132
-84 136 -224 l2 -90 -277 -3 c-187 -1 -276 1 -276 8 0 20 52 115 92 167 63 83
178 150 258 152 14 1 43 -4 65 -10z m1342 0 c93 -24 133 -97 133 -243 l0 -76
-281 0 -281 0 7 28 c10 40 69 134 115 180 53 55 111 93 168 108 60 16 83 17
139 3z"/>
<path d="M15590 2670 l0 -441 -122 3 -123 3 -3 338 -2 337 -55 0 -55 0 -2
-337 -3 -338 -157 -3 -158 -3 0 -54 0 -55 400 0 400 0 0 495 0 495 -60 0 -60
0 0 -440z"/>
<path d="M15900 2615 l0 -495 60 0 60 0 0 495 0 495 -60 0 -60 0 0 -495z"/>
<path d="M17102 2666 c3 -431 4 -445 24 -472 11 -15 33 -37 48 -48 27 -20 39
-21 409 -21 l382 0 47 27 c87 52 112 160 63 267 -32 68 -134 169 -243 241 -45
30 -78 57 -74 61 4 3 94 44 200 90 l192 84 0 57 0 56 -137 -60 c-76 -33 -192
-84 -258 -113 -107 -46 -122 -56 -142 -91 -32 -56 -29 -67 24 -93 130 -63 304
-206 338 -277 23 -49 16 -92 -18 -118 -28 -20 -39 -21 -350 -21 -177 0 -334 3
-349 7 -45 13 -48 40 -48 469 l0 399 -55 0 -56 0 3 -444z"/>
<path d="M19078 2673 l-3 -438 -122 0 c-122 0 -122 0 -153 30 -17 17 -84 117
-148 222 -64 106 -120 193 -124 193 -11 0 -98 -54 -98 -61 0 -4 43 -70 95
-148 105 -157 115 -187 68 -218 -22 -15 -55 -19 -185 -22 l-158 -3 0 -54 0
-54 143 0 c168 0 209 10 259 60 l37 37 33 -35 c55 -57 77 -62 283 -62 l185 0
0 495 0 495 -55 0 -55 0 -2 -437z"/>
<path d="M19390 2615 l0 -495 55 0 55 0 0 495 0 495 -55 0 -55 0 0 -495z"/>
<path d="M1843 2967 c-106 -62 -195 -115 -198 -118 -6 -7 663 -394 670 -387 7
6 -260 611 -270 614 -6 1 -96 -48 -202 -109z"/>
<path d="M12260 2890 c0 -80 -5 -78 83 -23 31 20 37 29 37 58 l0 35 -60 0 -60
0 0 -70z"/>
<path d="M18420 2889 c0 -39 3 -69 8 -67 4 2 31 16 60 32 49 27 52 32 52 68
l0 38 -60 0 -60 0 0 -71z"/>
<path d="M11113 2663 c-77 -26 -134 -71 -168 -134 -39 -72 -42 -180 -7 -246
12 -23 22 -45 22 -49 0 -4 -91 -4 -202 -1 -199 6 -293 18 -387 51 -24 9 -45
16 -48 16 -2 0 -3 -25 -1 -56 l3 -56 90 -27 c157 -47 218 -85 218 -138 0 -66
-105 -103 -315 -110 -130 -5 -154 -3 -217 16 -76 23 -131 63 -158 115 -13 23
-18 66 -21 164 l-4 132 -55 0 -55 0 4 -157 c5 -174 12 -203 68 -267 85 -96
303 -145 528 -117 138 17 217 46 273 101 65 62 73 111 33 208 -5 9 68 12 345
12 l351 0 0 54 0 54 -133 4 c-145 4 -179 15 -221 71 -30 40 -30 144 0 183 45
61 146 85 257 61 l37 -8 0 60 c0 33 -4 63 -10 66 -5 3 -47 8 -92 11 -62 3 -96
0 -135 -13z"/>
<path d="M19815 2636 c-62 -29 -107 -76 -135 -139 -60 -134 -21 -295 83 -348
69 -36 202 -37 292 -3 16 7 17 2 13 -45 -10 -104 -61 -139 -224 -154 l-114
-11 0 -53 0 -53 83 0 c213 1 319 63 362 214 26 90 17 378 -14 458 -53 138
-210 199 -346 134z m182 -106 c48 -29 66 -72 71 -172 l4 -88 -38 -17 c-25 -12
-65 -18 -111 -18 -83 0 -116 18 -146 78 -35 70 -3 175 65 217 43 26 113 26
155 0z"/>
<path d="M16725 2547 c-56 -22 -74 -37 -101 -84 -34 -57 -39 -148 -11 -202 9
-19 17 -36 17 -38 0 -1 -20 -3 -45 -3 l-45 0 0 -50 0 -50 210 0 210 0 0 50 0
50 -91 0 c-104 0 -139 14 -164 66 -54 115 58 211 188 159 15 -6 17 -1 17 48 0
48 -3 55 -22 61 -37 9 -131 5 -163 -7z"/>
<path d="M1760 1954 l0 -445 43 25 c23 13 191 111 372 216 182 105 334 195
338 199 5 5 -99 71 -230 147 -131 76 -302 175 -380 221 l-143 82 0 -445z"/>
<path d="M7190 1845 c0 -245 3 -444 8 -442 486 278 762 441 755 447 -6 5 -545
317 -755 437 -5 2 -8 -197 -8 -442z"/>
<path d="M6345 1918 c-49 -123 -94 -237 -101 -254 l-13 -30 105 -62 104 -61 0
315 c0 173 -1 314 -3 314 -2 0 -43 -100 -92 -222z"/>
<path d="M705 1888 c-209 -120 -379 -221 -378 -225 1 -3 172 -104 380 -224
l378 -218 3 225 c1 124 1 323 0 443 l-3 218 -380 -219z"/>
<path d="M10120 1630 l0 -70 53 30 c48 27 52 33 55 70 l3 40 -55 0 -56 0 0
-70z"/>
<path d="M10300 1630 l0 -71 48 27 c69 40 72 43 72 80 l0 34 -60 0 -60 0 0
-70z"/>
<path d="M5068 1403 c-38 -70 -102 -192 -143 -270 l-75 -141 141 -82 c77 -45
142 -80 145 -78 2 3 3 161 2 352 l-3 347 -67 -128z"/>
<path d="M10109 1435 c-64 -21 -138 -72 -172 -121 -37 -53 -55 -151 -38 -212
16 -56 70 -115 134 -147 29 -13 112 -39 186 -55 167 -39 233 -63 271 -101 80
-81 32 -221 -90 -258 -61 -18 -187 -17 -247 3 -90 30 -162 113 -163 189 0 27
-1 27 -66 27 l-66 0 7 -47 c16 -114 84 -205 189 -254 203 -94 482 -37 573 118
25 43 28 58 28 133 0 92 -11 123 -61 174 -52 51 -109 76 -286 120 -186 47
-220 60 -255 98 -37 40 -35 122 4 169 42 49 95 69 188 69 135 0 225 -60 241
-162 l7 -38 63 0 c73 0 73 0 48 89 -24 87 -71 143 -151 183 -63 31 -75 33
-183 35 -80 2 -129 -2 -161 -12z"/>
<path d="M12850 1247 l0 -184 -39 37 c-49 47 -116 70 -201 70 -131 0 -223 -58
-282 -178 -32 -65 -33 -70 -33 -192 0 -116 2 -129 28 -186 34 -74 94 -135 161
-165 112 -49 256 -31 328 41 l38 38 0 -44 0 -44 60 0 60 0 0 495 0 495 -60 0
-60 0 0 -183z m-104 -213 c34 -20 55 -44 73 -79 23 -44 26 -61 26 -160 0 -88
-4 -117 -19 -145 -24 -46 -64 -88 -101 -108 -45 -23 -133 -20 -188 7 -175 85
-163 444 18 510 53 19 138 8 191 -25z"/>
<path d="M13160 1360 l0 -71 33 17 c70 36 87 54 87 90 l0 34 -60 0 -60 0 0
-70z"/>
<path d="M13870 935 l0 -495 218 0 c293 0 375 22 475 129 77 82 111 181 123
349 13 211 -60 373 -204 450 -101 54 -152 62 -394 62 l-218 0 0 -495z m507
356 c67 -30 125 -93 149 -162 15 -43 19 -83 19 -194 0 -133 -1 -143 -28 -201
-34 -74 -84 -125 -152 -156 -44 -20 -69 -23 -207 -26 l-158 -4 0 387 0 387
163 -4 c144 -3 168 -6 214 -27z"/>
<path d="M17344 1406 c-58 -30 -89 -67 -105 -128 -19 -69 -5 -127 51 -212 l49
-75 -47 -27 c-114 -65 -182 -163 -182 -264 0 -117 47 -195 145 -245 54 -27 69
-30 155 -30 83 0 103 4 158 29 35 16 78 46 98 68 20 22 37 38 38 36 1 -1 24
-29 50 -60 l48 -58 74 0 c41 0 74 2 74 5 0 3 -41 53 -91 110 l-91 105 21 52
c23 60 40 130 41 171 0 26 -2 27 -53 27 l-52 0 -13 -67 c-7 -38 -17 -72 -21
-76 -9 -9 -173 185 -171 200 1 4 22 24 48 43 98 74 142 168 121 260 -22 98
-96 151 -219 157 -66 4 -81 1 -126 -21z m171 -92 c43 -20 68 -71 59 -118 -7
-40 -57 -103 -102 -129 l-30 -17 -30 37 c-83 107 -83 192 2 229 41 18 61 17
101 -2z m4 -532 c61 -74 111 -137 111 -141 0 -16 -77 -81 -114 -96 -44 -18
-128 -22 -167 -6 -47 17 -98 70 -110 113 -23 85 17 168 113 232 28 20 53 34
54 33 1 -1 52 -62 113 -135z"/>
<path d="M18515 945 c-104 -268 -191 -491 -193 -496 -2 -5 27 -9 65 -9 l68 0
55 148 55 147 208 3 208 2 18 -42 c9 -24 35 -91 56 -150 l38 -108 73 0 73 0
-10 28 c-6 15 -92 236 -192 492 l-183 465 -74 3 -75 3 -190 -486z m349 127
c42 -118 76 -216 76 -218 0 -2 -75 -4 -166 -4 -129 0 -165 3 -162 13 128 353
164 445 169 434 4 -6 41 -108 83 -225z"/>
<path d="M19340 935 l0 -495 70 0 70 0 0 495 0 495 -70 0 -70 0 0 -495z"/>
<path d="M20165 944 c-104 -267 -191 -490 -193 -495 -2 -5 27 -9 65 -9 l68 0
55 148 56 147 210 3 210 2 54 -150 54 -150 73 0 72 0 -10 28 c-6 15 -92 236
-192 492 l-182 465 -75 3 -75 2 -190 -486z m349 129 c42 -116 76 -213 76 -217
0 -3 -75 -6 -166 -6 -129 0 -165 3 -161 13 2 6 40 110 83 229 43 119 82 211
86 205 3 -7 41 -108 82 -224z"/>
<path d="M22180 935 l0 -495 59 0 59 0 4 243 c3 234 4 243 27 284 13 22 35 50
50 60 90 66 221 52 261 -28 18 -35 20 -60 20 -299 l0 -260 61 0 60 0 -3 283
c-4 315 -8 339 -74 396 -45 40 -103 54 -195 49 -85 -5 -150 -35 -188 -85 l-20
-28 -1 188 0 187 -60 0 -60 0 0 -495z"/>
<path d="M24230 1360 l0 -71 33 17 c70 36 87 54 87 90 l0 34 -60 0 -60 0 0
-70z"/>
<path d="M15620 1265 l0 -105 -60 0 -60 0 0 -55 0 -55 59 0 60 0 3 -267 c3
-239 5 -271 21 -295 25 -36 65 -48 158 -48 l79 0 0 49 0 49 -61 4 c-38 3 -64
10 -70 19 -5 8 -9 121 -9 252 l0 237 70 0 70 0 0 55 0 55 -70 0 -70 0 0 105 0
105 -60 0 -60 0 0 -105z"/>
<path d="M21790 1265 l0 -105 -60 0 -60 0 0 -55 0 -55 60 0 60 0 0 -255 c0
-291 5 -315 64 -340 21 -9 68 -15 116 -15 l80 0 0 50 0 50 -44 0 c-25 0 -56 4
-70 10 l-26 10 0 245 0 245 70 0 70 0 0 55 0 55 -70 0 -70 0 0 105 0 105 -60
0 -60 0 0 -105z"/>
<path d="M24580 1265 l0 -104 -62 -3 -63 -3 -3 -52 -3 -53 65 0 65 0 3 -275 3
-275 28 -27 c26 -26 34 -28 127 -31 l100 -4 0 51 0 51 -53 0 c-94 0 -92 -8
-95 269 l-3 241 75 0 76 0 0 55 0 55 -75 0 -75 0 0 105 0 105 -55 0 -55 0 0
-105z"/>
<path d="M2142 1047 c-210 -121 -381 -221 -380 -222 33 -24 761 -436 764 -433
2 3 3 201 2 440 l-3 435 -383 -220z"/>
<path d="M5911 1188 l-32 -83 3 -336 3 -337 378 218 c207 119 379 219 382 221
5 5 -680 399 -694 399 -4 0 -22 -37 -40 -82z"/>
<path d="M3061 992 l-1 -234 53 32 c28 17 66 38 83 47 l31 16 -64 146 c-35 80
-73 164 -83 186 l-18 40 -1 -233z"/>
<path d="M10952 1151 c-85 -29 -141 -95 -157 -183 l-7 -38 60 0 60 0 6 33 c13
69 105 116 205 104 88 -10 131 -47 131 -112 0 -61 -25 -76 -170 -100 -159 -27
-208 -44 -256 -89 -54 -53 -71 -109 -56 -184 23 -110 92 -157 232 -157 98 0
143 14 206 61 50 38 54 40 54 19 0 -66 78 -104 154 -75 23 8 26 15 26 56 0 40
-2 46 -19 41 -10 -2 -26 0 -35 5 -14 8 -16 36 -16 236 0 135 -5 243 -11 267
-15 54 -74 109 -132 124 -71 17 -213 13 -275 -8z m297 -429 c-4 -68 -8 -84
-33 -116 -38 -51 -100 -77 -180 -78 -68 0 -118 19 -136 51 -26 50 -1 130 50
156 16 8 75 22 132 31 57 9 112 20 123 25 45 18 47 13 44 -69z"/>
<path d="M14985 1153 c-28 -10 -65 -28 -82 -41 -36 -26 -83 -113 -83 -154 0
-29 0 -29 58 -26 54 3 57 5 60 30 8 69 98 115 206 105 72 -7 106 -29 125 -84
13 -37 13 -44 -3 -67 -22 -35 -38 -40 -187 -65 -205 -35 -277 -87 -287 -205
-11 -132 63 -211 207 -223 84 -7 167 15 233 62 l47 34 11 -35 c18 -55 88 -79
154 -54 23 8 26 15 26 54 0 43 -1 45 -30 44 -17 -1 -34 2 -38 6 -4 4 -9 121
-12 259 -6 288 -9 301 -91 347 -38 21 -59 25 -154 28 -86 2 -121 -2 -160 -15z
m285 -431 c0 -66 -4 -83 -24 -113 -42 -62 -142 -95 -234 -77 -65 12 -92 40
-92 98 0 86 34 110 206 140 65 12 120 23 123 26 15 15 21 -5 21 -74z"/>
<path d="M16195 1160 c-110 -28 -184 -107 -185 -197 l0 -33 53 0 c54 0 54 0
65 38 7 21 21 47 31 56 67 61 233 60 281 -1 16 -20 20 -38 18 -72 -4 -60 -29
-74 -187 -100 -213 -36 -281 -85 -289 -206 -5 -81 10 -125 58 -168 92 -84 298
-71 398 25 l32 32 0 -28 c0 -44 49 -86 100 -86 64 0 80 13 80 67 0 39 -2 45
-19 40 -10 -2 -26 0 -35 5 -14 8 -16 37 -16 248 0 144 -4 250 -11 267 -17 46
-69 92 -123 108 -52 16 -199 19 -251 5z m261 -507 c-16 -60 -101 -119 -181
-124 -88 -5 -106 0 -142 36 -32 32 -35 40 -30 76 6 44 37 85 77 101 14 5 77
18 140 29 63 11 119 24 125 30 11 11 20 -110 11 -148z"/>
<path d="M23142 1151 c-66 -23 -117 -63 -159 -125 -41 -61 -54 -102 -60 -201
-14 -222 103 -378 303 -400 253 -29 430 180 385 452 -23 135 -111 244 -225
278 -68 20 -179 19 -244 -4z m192 -93 c94 -28 156 -133 156 -263 0 -163 -88
-268 -225 -267 -130 1 -216 102 -218 256 -2 98 17 158 67 212 61 67 134 87
220 62z"/>
<path d="M24005 1151 c-38 -17 -90 -66 -127 -121 -17 -25 -17 -24 -17 53 l-1
78 -52 -3 -53 -3 -3 -357 -2 -358 59 0 59 0 4 213 c3 210 3 213 31 270 35 71
80 103 165 119 l62 12 0 58 0 58 -42 0 c-24 0 -61 -9 -83 -19z"/>
<path d="M11552 868 c3 -291 3 -293 28 -338 74 -131 287 -150 405 -36 l45 43
0 -49 0 -48 60 0 60 0 -2 358 -3 357 -57 3 -56 3 -4 -243 c-3 -228 -4 -246
-25 -284 -31 -58 -74 -91 -137 -104 -88 -18 -149 7 -185 77 -7 14 -11 110 -11
287 l0 266 -61 0 -60 0 3 -292z"/>
<path d="M13160 800 l0 -360 60 0 60 0 -2 358 -3 357 -57 3 -58 3 0 -361z"/>
<path d="M20972 868 c3 -291 3 -293 28 -338 74 -132 290 -150 406 -35 l44 44
0 -49 0 -50 60 0 60 0 -2 358 -3 357 -57 3 -56 3 -4 -243 c-3 -229 -4 -245
-25 -285 -61 -113 -218 -146 -298 -63 l-30 31 -3 280 -3 279 -60 0 -60 0 3
-292z"/>
<path d="M24230 800 l0 -360 60 0 60 0 -2 358 -3 357 -57 3 -58 3 0 -361z"/>
<path d="M24900 1148 c0 -8 62 -169 138 -359 l139 -346 -26 -67 c-43 -106 -93
-140 -168 -113 -22 8 -23 6 -23 -47 0 -51 2 -56 26 -62 43 -11 132 3 164 26
16 12 42 41 56 65 23 41 354 886 354 906 0 5 -27 9 -59 9 -58 0 -59 -1 -70
-32 -7 -18 -50 -145 -98 -283 -47 -137 -88 -256 -92 -262 -4 -7 -54 119 -111
280 l-105 292 -62 3 c-47 2 -63 0 -63 -10z"/>
<path d="M3448 672 c-286 -165 -374 -220 -365 -228 12 -12 745 -434 753 -434
2 0 4 198 4 440 0 242 -3 440 -7 439 -5 0 -178 -98 -385 -217z"/>
</g>
</svg>
